<svg width="17" height="17" viewBox="0 0 17 17" fill="none" xmlns="http://www.w3.org/2000/svg">
<path fill-rule="evenodd" clip-rule="evenodd" d="M13.7922 6.89366L11.9007 8.80343C11.8256 8.87931 11.7314 8.93315 11.6283 8.95918L8.46117 9.75864C8.26133 9.80908 8.04993 9.74996 7.90428 9.60289C7.75862 9.45583 7.70007 9.24238 7.75003 9.0406L7.83664 8.69079L3.62757 8.69079C3.24972 8.69079 2.94342 8.38151 2.94342 8C2.94342 7.61849 3.24972 7.30921 3.62757 7.30921L8.17872 7.30921L8.54182 5.84275C8.56759 5.73864 8.62091 5.64356 8.69607 5.56768L9.12146 5.13816L3.62757 5.13816C3.24972 5.13816 2.94342 4.82888 2.94342 4.44737C2.94342 4.06586 3.24972 3.75658 3.62757 3.75658L10.4898 3.75658L13.2949 0.924215C13.0156 0.661042 12.6406 0.5 12.2284 0.5H2.06379C1.20013 0.5 0.5 1.20692 0.5 2.07895V14.7544C0.5 15.6264 1.20013 16.3333 2.06379 16.3333H12.2284C13.092 16.3333 13.7922 15.6264 13.7922 14.7544V6.89366ZM2.94341 11.5526C2.94342 11.1711 3.24972 10.8618 3.62757 10.8618L6.75514 10.8618C7.13299 10.8618 7.4393 11.1711 7.4393 11.5526C7.4393 11.9341 7.13299 12.2434 6.75514 12.2434H3.62757C3.24972 12.2434 2.94341 11.9341 2.94341 11.5526Z" fill="#76809B"/>
<path d="M15.2401 1.09211C14.9502 1.09211 14.6721 1.2084 14.4671 1.4154L9.79337 6.13445C9.69317 6.23563 9.62208 6.3624 9.58771 6.50122L9.2039 8.05131C9.16811 8.19586 9.29779 8.3268 9.44095 8.29066L10.9762 7.90313C11.1136 7.86843 11.2392 7.79665 11.3394 7.69547L16.0131 2.97643C16.2182 2.76943 16.3333 2.48867 16.3333 2.19592C16.3333 1.90317 16.2182 1.62241 16.0131 1.4154C15.8081 1.2084 15.5301 1.09211 15.2401 1.09211Z" fill="#76809B"/>
</svg>
