<svg width="141" height="45" viewBox="0 0 141 45" fill="none" xmlns="http://www.w3.org/2000/svg">
<g clip-path="url(#clip0_2431_248435)">
<path d="M135.737 0H5.17637C2.48581 0 0.304688 2.18112 0.304688 4.87168V39.9478C0.304688 42.6383 2.48581 44.8194 5.17637 44.8194H135.737C138.428 44.8194 140.609 42.6383 140.609 39.9478V4.87168C140.609 2.18112 138.428 0 135.737 0Z" fill="white"/>
<path d="M52.2964 13.7203C52.2964 14.4711 52.0803 15.0342 51.6482 15.4723C51.1542 16.0041 50.506 16.2544 49.7342 16.2544C48.9933 16.2544 48.345 16.0041 47.8202 15.4723C47.2955 14.9404 47.0176 14.2834 47.0176 13.5012C47.0176 12.7191 47.2955 12.0621 47.8202 11.5302C48.345 10.9984 48.9933 10.748 49.7342 10.748C50.1047 10.748 50.4751 10.8106 50.8147 10.9671C51.1542 11.1235 51.4321 11.3112 51.6173 11.5615L51.1542 12.0308C50.8147 11.6241 50.3208 11.405 49.7342 11.405C49.1786 11.405 48.7155 11.5928 48.3141 11.9995C47.9128 12.375 47.7276 12.9068 47.7276 13.5325C47.7276 14.1582 47.9128 14.6588 48.3141 15.0655C48.7155 15.4409 49.1786 15.66 49.7342 15.66C50.3208 15.66 50.8147 15.4723 51.1851 15.0655C51.4321 14.8152 51.5864 14.4398 51.6173 14.0018H49.7342V13.3761H52.2655C52.2655 13.47 52.2964 13.5951 52.2964 13.7203Z" fill="#123060"/>
<path d="M56.2753 11.5281H53.8982V13.1862H56.0283V13.8119H53.8982V15.4702H56.2753V16.1271H53.25V10.8711H56.2753V11.5281Z" fill="#123060"/>
<path d="M59.1184 16.1271H58.4392V11.5281H56.9883V10.8711H60.5693V11.5281H59.1184V16.1271Z" fill="#123060"/>
<path d="M63.1641 16.1271V10.8711H63.8446V16.1584H63.1641V16.1271Z" fill="#123060"/>
<path d="M66.8078 16.1271H66.1286V11.5281H64.6777V10.8711H68.2587V11.5281H66.8078V16.1271Z" fill="#123060"/>
<path d="M75.0176 15.4722C74.4928 16.0041 73.8754 16.2857 73.1036 16.2857C72.3319 16.2857 71.7145 16.0041 71.1897 15.4722C70.6649 14.9404 70.418 14.2834 70.418 13.5013C70.418 12.7191 70.6649 12.0621 71.1897 11.5303C71.7145 10.9984 72.3319 10.7168 73.1036 10.7168C73.8754 10.7168 74.4928 10.9984 75.0176 11.5303C75.5424 12.0621 75.7894 12.7191 75.7894 13.47C75.7894 14.2834 75.5424 14.9404 75.0176 15.4722ZM71.7145 15.0343C72.085 15.441 72.5788 15.6287 73.1345 15.6287C73.6902 15.6287 74.1533 15.441 74.5546 15.0343C74.925 14.6276 75.1412 14.127 75.1412 13.5325C75.1412 12.9381 74.9559 12.4062 74.5546 12.0308C74.1842 11.6241 73.6902 11.4363 73.1345 11.4363C72.5788 11.4363 72.1158 11.6241 71.7145 12.0308C71.3441 12.4376 71.128 12.9381 71.128 13.5325C71.128 14.127 71.3132 14.6276 71.7145 15.0343Z" fill="#123060"/>
<path d="M76.7441 16.1271V10.8711H77.5468L80.0781 14.9695H80.109L80.0781 13.9371V10.8711H80.7573V16.1584H80.0472L77.3924 11.8409H77.3616L77.3924 12.8734V16.1584H76.7441V16.1271Z" fill="#123060"/>
<path d="M70.2639 23.8564C68.2265 23.8564 66.5594 25.4207 66.5594 27.6107C66.5594 29.7695 68.2265 31.365 70.2639 31.365C72.3013 31.365 73.9683 29.7695 73.9683 27.6107C73.9683 25.4207 72.3013 23.8564 70.2639 23.8564ZM70.2639 29.8633C69.1526 29.8633 68.1956 28.9247 68.1956 27.6107C68.1956 26.2654 69.1526 25.3582 70.2639 25.3582C71.3752 25.3582 72.3322 26.2654 72.3322 27.6107C72.3631 28.9247 71.4061 29.8633 70.2639 29.8633ZM62.1758 23.8564C60.1384 23.8564 58.4713 25.4207 58.4713 27.6107C58.4713 29.7695 60.1384 31.365 62.1758 31.365C64.2133 31.365 65.8803 29.7695 65.8803 27.6107C65.9111 25.4207 64.2441 23.8564 62.1758 23.8564ZM62.1758 29.8633C61.0645 29.8633 60.1075 28.9247 60.1075 27.6107C60.1075 26.2654 61.0645 25.3582 62.1758 25.3582C63.2872 25.3582 64.2442 26.2654 64.2442 27.6107C64.275 28.9247 63.318 29.8633 62.1758 29.8633ZM52.5751 24.9826V26.5782H56.3104C56.187 27.4855 55.9091 28.1112 55.446 28.5806C54.8903 29.1437 54.0569 29.7382 52.5442 29.7382C50.2289 29.7382 48.4385 27.861 48.4385 25.5145C48.4385 23.168 50.2289 21.2909 52.5442 21.2909C53.779 21.2909 54.7051 21.7915 55.3843 22.4172L56.4956 21.2909C55.5695 20.3836 54.3038 19.6953 52.5751 19.6953C49.4263 19.6953 46.7715 22.2921 46.7715 25.5145C46.7715 28.7057 49.4263 31.3338 52.5751 31.3338C54.273 31.3338 55.5695 30.7706 56.5882 29.7069C57.6379 28.6431 57.9465 27.1727 57.9465 25.9839C57.9465 25.6084 57.9156 25.2642 57.854 24.9826H52.5751ZM91.9041 26.2341C91.5953 25.3894 90.6692 23.8564 88.7552 23.8564C86.8413 23.8564 85.2669 25.3582 85.2669 27.6107C85.2669 29.7069 86.8413 31.365 88.9405 31.365C90.6384 31.365 91.6262 30.3013 92.0275 29.7069L90.7619 28.8622C90.3296 29.4879 89.774 29.8946 88.9405 29.8946C88.107 29.8946 87.5204 29.5191 87.15 28.7683L92.0893 26.7034L91.9041 26.2341ZM86.8721 27.4855C86.8413 26.0464 87.9835 25.2955 88.817 25.2955C89.4653 25.2955 90.021 25.6084 90.1753 26.0777L86.8721 27.4855ZM82.859 31.0834H84.4951V20.1021H82.859V31.0834ZM80.2042 24.6698H80.1424C79.7719 24.2318 79.0928 23.8251 78.1976 23.8251C76.3453 23.8251 74.6474 25.4833 74.6474 27.5794C74.6474 29.6756 76.3453 31.3025 78.1976 31.3025C79.0928 31.3025 79.7719 30.8957 80.1424 30.4577H80.2042V30.9896C80.2042 32.4287 79.4633 33.1796 78.2284 33.1796C77.2406 33.1796 76.6232 32.4601 76.3762 31.8344L74.9562 32.4287C75.3575 33.4299 76.438 34.6501 78.2284 34.6501C80.1424 34.6501 81.7477 33.5238 81.7477 30.7393V24.0753H80.2042V24.6698ZM78.3519 29.8633C77.2406 29.8633 76.2836 28.9247 76.2836 27.6107C76.2836 26.2967 77.2097 25.3268 78.3519 25.3268C79.4633 25.3268 80.3276 26.2967 80.3276 27.6107C80.2967 28.8934 79.4324 29.8633 78.3519 29.8633ZM99.4979 20.1021H95.6085V31.0834H97.2138V26.9224H99.4677C101.258 26.9224 103.017 25.6084 103.017 23.5123C103.017 21.4161 101.289 20.1021 99.4979 20.1021ZM99.5291 25.3894H97.2138V21.635H99.5291C100.733 21.635 101.413 22.6362 101.413 23.5123C101.443 24.3569 100.764 25.3894 99.5291 25.3894ZM109.562 23.8251C108.389 23.8251 107.184 24.3569 106.66 25.5145L108.111 26.109C108.42 25.5145 108.975 25.2955 109.593 25.2955C110.426 25.2955 111.29 25.7961 111.29 26.7034V26.8285C111.013 26.6721 110.365 26.3906 109.593 26.3906C108.05 26.3906 106.475 27.2666 106.475 28.8622C106.475 30.3326 107.741 31.2712 109.16 31.2712C110.241 31.2712 110.859 30.7706 111.229 30.2074H111.29V31.0522H112.865V26.8598C112.835 24.9201 111.414 23.8251 109.562 23.8251ZM109.346 29.8633C108.821 29.8633 108.08 29.5817 108.08 28.9247C108.08 28.08 109.006 27.7358 109.809 27.7358C110.519 27.7358 110.859 27.8923 111.29 28.1112C111.168 29.1125 110.303 29.8633 109.346 29.8633ZM118.545 24.0753L116.693 28.8309H116.632L114.717 24.0753H112.957L115.86 30.7393L114.223 34.4311H115.921L120.366 24.0753H118.545ZM103.944 31.0834H105.549V20.1021H103.944V31.0834Z" fill="#123060"/>
<path d="M20.1923 11.3419C19.9453 11.6234 19.791 12.0302 19.791 12.5621V32.0219C19.791 32.5538 19.9453 32.9919 20.1923 33.2734L20.2541 33.336L30.997 22.4484V22.292V22.1669L20.2541 11.2793L20.1923 11.3419Z" fill="url(#paint0_linear_2431_248435)"/>
<path d="M34.6119 26.0791L31 22.4186V22.2935V22.1683L34.6119 18.5391L34.7044 18.5704L38.9337 21.042C40.1377 21.7303 40.1377 22.8878 38.9337 23.5762L34.6736 26.0165L34.6119 26.0791Z" fill="url(#paint1_linear_2431_248435)"/>
<path d="M34.6717 26.016L30.9981 22.293L20.1934 33.243C20.5947 33.6811 21.243 33.7124 21.9839 33.3056L34.6717 26.016Z" fill="url(#paint2_linear_2431_248435)"/>
<path d="M34.6716 18.5983L21.9839 11.2774C21.243 10.8394 20.5947 10.902 20.1934 11.3399L30.9981 22.2901L34.6716 18.5983Z" fill="url(#paint3_linear_2431_248435)"/>
<path opacity="0.2" d="M34.6099 25.9219L21.9839 33.1802C21.2738 33.587 20.6565 33.5556 20.2551 33.1802L20.1934 33.2427L20.2551 33.3054C20.6565 33.6808 21.3047 33.7121 21.9839 33.3054L34.6716 26.0157L34.6099 25.9219Z" fill="black"/>
<path opacity="0.12" d="M20.1932 33.1479C19.9457 32.8663 19.791 32.4597 19.791 31.8965V32.0216C19.791 32.5535 19.9457 32.9914 20.1932 33.273L20.2551 33.2105L20.1932 33.1479Z" fill="black"/>
<path opacity="0.12" d="M38.9293 23.4505L34.6074 25.9534L34.7 26.0473L38.9293 23.5757C39.5467 23.2315 39.8245 22.7622 39.8245 22.293C39.7936 22.7309 39.4849 23.1376 38.9293 23.4505Z" fill="black"/>
<path opacity="0.25" d="M21.9828 11.4026L38.9307 21.1637C39.4863 21.4766 39.7951 21.8834 39.826 22.2901C39.826 21.8208 39.5172 21.3828 38.9307 21.0074L21.9828 11.2774C20.7789 10.5891 19.791 11.1523 19.791 12.5602V12.6853C19.791 11.3087 20.7789 10.7143 21.9828 11.4026Z" fill="#123060"/>
</g>
<defs>
<linearGradient id="paint0_linear_2431_248435" x1="30.0566" y1="12.3696" x2="15.2952" y2="26.9349" gradientUnits="userSpaceOnUse">
<stop stop-color="#00A0FF"/>
<stop offset="0.00657445" stop-color="#00A1FF"/>
<stop offset="0.2601" stop-color="#00BEFF"/>
<stop offset="0.5122" stop-color="#00D2FF"/>
<stop offset="0.7604" stop-color="#00DFFF"/>
<stop offset="1" stop-color="#00E3FF"/>
</linearGradient>
<linearGradient id="paint1_linear_2431_248435" x1="40.5053" y1="22.3038" x2="19.5031" y2="22.3038" gradientUnits="userSpaceOnUse">
<stop stop-color="#FFE000"/>
<stop offset="0.4087" stop-color="#FFBD00"/>
<stop offset="0.7754" stop-color="#FFA500"/>
<stop offset="1" stop-color="#FF9C00"/>
</linearGradient>
<linearGradient id="paint2_linear_2431_248435" x1="32.6852" y1="24.3218" x2="12.6676" y2="44.0736" gradientUnits="userSpaceOnUse">
<stop stop-color="#FF3A44"/>
<stop offset="1" stop-color="#C31162"/>
</linearGradient>
<linearGradient id="paint3_linear_2431_248435" x1="17.47" y1="4.86104" x2="26.4087" y2="13.681" gradientUnits="userSpaceOnUse">
<stop stop-color="#32A071"/>
<stop offset="0.0685" stop-color="#2DA771"/>
<stop offset="0.4762" stop-color="#15CF74"/>
<stop offset="0.8009" stop-color="#06E775"/>
<stop offset="1" stop-color="#00F076"/>
</linearGradient>
<clipPath id="clip0_2431_248435">
<rect width="140.304" height="44.8194" fill="white" transform="translate(0.304688)"/>
</clipPath>
</defs>
</svg>
