<svg width="20" height="20" viewBox="0 0 20 20" fill="none" xmlns="http://www.w3.org/2000/svg">
<path d="M15.7899 9.25935C15.4258 6.39102 12.9691 4.16602 10.0033 4.16602C7.70659 4.16602 5.71159 5.50852 4.80076 7.62435C3.01076 8.15935 1.66992 9.84935 1.66992 11.666C1.66992 13.9635 3.53909 15.8327 5.83659 15.8327H6.66992V14.166H5.83659C4.45826 14.166 3.33659 13.0443 3.33659 11.666C3.33659 10.496 4.33576 9.36852 5.56409 9.15268L6.04825 9.06768L6.20826 8.60268C6.79409 6.89352 8.24826 5.83268 10.0033 5.83268C12.3008 5.83268 14.1699 7.70185 14.1699 9.99935V10.8327H15.0033C15.9224 10.8327 16.6699 11.5802 16.6699 12.4993C16.6699 13.4185 15.9224 14.166 15.0033 14.166H13.3366V15.8327H15.0033C16.8416 15.8327 18.3366 14.3377 18.3366 12.4993C18.3356 11.7523 18.0842 11.0271 17.6225 10.4398C17.1609 9.85241 16.5156 9.4368 15.7899 9.25935Z" fill="white"/>
<path d="M10.8366 11.6654V8.33203H9.16992V11.6654H6.66992L10.0033 15.832L13.3366 11.6654H10.8366Z" fill="white"/>
</svg>
