<svg width="20" height="20" viewBox="0 0 20 20" fill="none" xmlns="http://www.w3.org/2000/svg">
<path fill-rule="evenodd" clip-rule="evenodd" d="M14.741 5.6897C14.7353 5.57648 14.6912 5.46855 14.6161 5.38369L11.1679 1.93553C11.0831 1.86037 10.9751 1.81633 10.8619 1.81055H2.24158C2.00353 1.81055 1.81055 2.00353 1.81055 2.24158V17.7582C1.81055 17.9962 2.00353 18.1892 2.24158 18.1892H10.8619C11.0999 18.1892 11.2929 17.9962 11.2929 17.7582V11.7239C11.2929 11.0098 11.8719 10.4309 12.586 10.4309H14.3101C14.5481 10.4309 14.7411 10.2379 14.7411 9.99984L14.741 5.6897ZM11.2125 5.78653C10.9824 5.78653 10.7959 5.59998 10.7959 5.36986V2.7694L13.813 5.78653H11.2125ZM8.32997 6.95061C8.32997 6.77556 8.15492 6.60052 7.97987 6.60052H7.80483C7.62978 6.60052 7.51308 6.77556 7.51308 6.95061V7.4174H7.10464C6.6962 7.4174 6.28775 7.59245 6.05436 7.88419C5.76261 8.11759 5.58757 8.52603 5.58757 8.93447C5.58757 9.34292 5.76261 9.75136 6.05436 9.98475C6.3461 10.2765 6.75455 10.4515 7.10464 10.4515H8.68006C8.85511 10.4515 9.03015 10.5099 9.2052 10.6849C9.3219 10.8016 9.4386 10.9767 9.4386 11.2101C9.4386 11.3851 9.38025 11.5602 9.2052 11.7352C9.0885 11.7936 8.91346 11.8519 8.68006 11.8519H6.22941C6.05436 11.8519 5.93766 11.9686 5.93766 12.1437V12.3187C5.93766 12.4938 6.11271 12.6688 6.28775 12.6688H7.57143V13.1939C7.57143 13.369 7.74648 13.544 7.92152 13.544H8.09657C8.27162 13.544 8.44666 13.369 8.44666 13.1939V12.6688H8.85511C9.26355 12.6688 9.67199 12.4938 9.90539 12.202C10.1388 11.9103 10.2555 11.5602 10.2555 11.1517C10.2555 10.7433 10.0804 10.3348 9.78869 10.1015C9.49695 9.75136 9.0885 9.63466 8.68006 9.63466H7.10464C6.92959 9.63466 6.75455 9.51796 6.63785 9.40126C6.52115 9.28457 6.40445 9.10952 6.40445 8.93447C6.40445 8.75943 6.4628 8.58438 6.63785 8.40933C6.75455 8.29264 6.92959 8.17594 7.10464 8.17594H9.38025C9.55529 8.17594 9.73034 8.00089 9.73034 7.82584V7.70915C9.73034 7.5341 9.55529 7.35905 9.38025 7.35905H8.32997V6.95061ZM12.586 11.293H17.7582C17.9962 11.293 18.1892 11.486 18.1892 11.724V12.586C18.1892 12.8241 17.9962 13.0171 17.7582 13.0171H12.586C12.3479 13.0171 12.155 12.8241 12.155 12.586V11.724C12.155 11.4859 12.3479 11.293 12.586 11.293ZM17.7582 13.879H12.586C12.3479 13.879 12.1549 14.072 12.1549 14.3101V15.1721C12.1549 15.4101 12.3479 15.6031 12.586 15.6031H17.7582C17.9962 15.6031 18.1892 15.4101 18.1892 15.1721V14.3101C18.1892 14.072 17.9962 13.879 17.7582 13.879ZM17.7582 16.4651H12.586C12.3479 16.4651 12.1549 16.6581 12.1549 16.8962V17.7582C12.1549 17.9962 12.3479 18.1892 12.586 18.1892H17.7582C17.9962 18.1892 18.1892 17.9962 18.1892 17.7582V16.8962C18.1892 16.6581 17.9962 16.4651 17.7582 16.4651Z" fill="#76809B"/>
</svg>
