<svg width="141" height="45" viewBox="0 0 141 45" fill="none" xmlns="http://www.w3.org/2000/svg">
<g clip-path="url(#clip0_2431_248432)">
<path d="M135.433 0H4.87168C2.18112 0 0 2.18112 0 4.87168V39.9478C0 42.6383 2.18112 44.8194 4.87168 44.8194H135.433C138.123 44.8194 140.304 42.6383 140.304 39.9478V4.87168C140.304 2.18112 138.123 0 135.433 0Z" fill="white"/>
<path d="M37.1102 21.3072C37.1209 20.4738 37.3412 19.6566 37.7506 18.9317C38.1599 18.2069 38.745 17.5979 39.4514 17.1614C39.0026 16.5172 38.4106 15.987 37.7223 15.6131C37.034 15.2391 36.2685 15.0316 35.4864 15.0069C33.8182 14.831 32.2009 16.0103 31.3508 16.0103C30.4844 16.0103 29.1754 15.0244 27.766 15.0536C26.8544 15.0832 25.9659 15.3497 25.1872 15.827C24.4085 16.3043 23.766 16.9762 23.3225 17.7773C21.4012 21.1207 22.8344 26.0343 24.6748 28.7369C25.5955 30.0602 26.6717 31.5385 28.0798 31.4861C29.4578 31.4286 29.9725 30.6028 31.6357 30.6028C33.2836 30.6028 33.7665 31.4861 35.2032 31.4527C36.6818 31.4286 37.6135 30.1235 38.5019 28.7876C39.1635 27.8447 39.6726 26.8024 40.0103 25.6997C39.1514 25.3345 38.4183 24.7233 37.9026 23.9422C37.3868 23.161 37.1113 22.2447 37.1102 21.3072ZM34.3966 13.2296C35.2028 12.2569 35.6 11.0065 35.5038 9.74414C34.2721 9.87421 33.1344 10.4659 32.3174 11.4013C31.9178 11.8583 31.6119 12.3899 31.4169 12.9659C31.2219 13.5417 31.1417 14.1506 31.1811 14.7577C31.7972 14.764 32.4066 14.6298 32.9637 14.3651C33.5207 14.1004 34.0107 13.7121 34.3967 13.2295L34.3966 13.2296ZM53.6422 28.2688H49.1203L48.0344 31.4916H46.1189L50.4021 19.568H52.3921L56.6752 31.4916H54.7273L53.6422 28.2688ZM49.5885 26.7816H53.1729L51.406 21.5512H51.3565L49.5885 26.7816ZM65.9251 27.1455C65.9251 29.8469 64.4865 31.5825 62.3156 31.5825C61.7657 31.6115 61.2188 31.4841 60.7376 31.2151C60.2563 30.9462 59.8601 30.5464 59.5943 30.0616H59.5533V34.3675H57.7777V22.7984H59.4963V24.2443H59.529C59.8069 23.7618 60.2098 23.3641 60.6948 23.0935C61.1797 22.8228 61.7286 22.6895 62.283 22.7074C64.4782 22.7074 65.9251 24.4515 65.9251 27.1454V27.1455ZM64.1003 27.1455C64.1003 25.3854 63.1954 24.2283 61.8147 24.2283C60.4581 24.2283 59.5458 25.4098 59.5458 27.1454C59.5458 28.897 60.4581 30.0701 61.8147 30.0701C63.1954 30.0701 64.1003 28.9215 64.1003 27.1454V27.1455ZM75.4452 27.1455C75.4452 29.8469 74.0062 31.5825 71.8353 31.5825C71.2853 31.6115 70.7384 31.4841 70.2571 31.2151C69.7758 30.9462 69.3796 30.5464 69.1139 30.0616H69.0728V34.3675H67.2975V22.7984H69.0159V24.2443H69.0486C69.3265 23.7618 69.7294 23.3641 70.2144 23.0935C70.6993 22.8228 71.2481 22.6895 71.8025 22.7074C73.9978 22.7074 75.4452 24.4515 75.4452 27.1454V27.1455ZM73.62 27.1455C73.62 25.3854 72.715 24.2283 71.3343 24.2283C69.9777 24.2283 69.0654 25.4098 69.0654 27.1454C69.0654 28.897 69.9777 30.0701 71.3343 30.0701C72.715 30.0701 73.62 28.9215 73.62 27.1454V27.1455ZM81.736 28.1694C81.8675 29.3518 83.0104 30.1282 84.5721 30.1282C86.0685 30.1282 87.1451 29.3518 87.1451 28.2857C87.1451 27.3601 86.4958 26.806 84.9584 26.4262L83.4209 26.0539C81.2425 25.5251 80.2312 24.5011 80.2312 22.8395C80.2312 20.7823 82.0149 19.3692 84.5469 19.3692C87.0547 19.3692 88.7731 20.7823 88.831 22.8395H87.0388C86.9315 21.6496 85.9528 20.9314 84.5227 20.9314C83.0924 20.9314 82.1138 21.6581 82.1138 22.7158C82.1138 23.5589 82.7389 24.0549 84.268 24.4345L85.575 24.7571C88.009 25.3357 89.0193 26.3184 89.0193 28.0624C89.0193 30.2932 87.2524 31.6904 84.4405 31.6904C81.8095 31.6904 80.0333 30.3259 79.9185 28.1693L81.736 28.1694ZM92.8528 20.7412V22.7984H94.4975V24.2115H92.8528V29.0039C92.8528 29.7484 93.1821 30.0954 93.9051 30.0954C94.1004 30.092 94.2954 30.0781 94.4892 30.0541V31.4589C94.1641 31.5199 93.8337 31.5474 93.503 31.5412C91.7519 31.5412 91.069 30.8802 91.069 29.1942V24.2115H89.8115V22.7984H91.069V20.7412H92.8528ZM95.4492 27.1455C95.4492 24.4102 97.0518 22.6915 99.5512 22.6915C102.059 22.6915 103.654 24.4102 103.654 27.1455C103.654 29.8881 102.067 31.5995 99.5512 31.5995C97.0361 31.5995 95.4492 29.8881 95.4492 27.1455ZM101.846 27.1455C101.846 25.2692 100.989 24.1617 99.5512 24.1617C98.1131 24.1617 97.2571 25.2776 97.2571 27.1455C97.2571 29.0293 98.1131 30.1282 99.5512 30.1282C100.989 30.1282 101.846 29.0293 101.846 27.1455ZM105.118 22.7984H106.811V24.278H106.852C106.967 23.8159 107.236 23.4074 107.615 23.1215C107.994 22.8354 108.46 22.6893 108.933 22.7074C109.138 22.7067 109.341 22.729 109.541 22.7739V24.4431C109.283 24.3638 109.013 24.3273 108.743 24.3352C108.486 24.3247 108.229 24.3704 107.99 24.4692C107.751 24.568 107.537 24.7175 107.361 24.9075C107.185 25.0975 107.052 25.3236 106.972 25.57C106.891 25.8165 106.865 26.0775 106.894 26.3353V31.4916H105.118V22.7984ZM117.726 28.9383C117.488 30.5164 115.959 31.5995 114.003 31.5995C111.486 31.5995 109.924 29.9051 109.924 27.1867C109.924 24.4599 111.495 22.6915 113.928 22.6915C116.321 22.6915 117.826 24.3437 117.826 26.9795V27.5909H111.717V27.6987C111.689 28.0186 111.728 28.3409 111.834 28.6442C111.939 28.9474 112.107 29.2247 112.327 29.4577C112.547 29.6905 112.814 29.8737 113.11 29.995C113.406 30.1162 113.724 30.1728 114.043 30.1611C114.463 30.2006 114.884 30.1029 115.244 29.8826C115.603 29.6623 115.883 29.3311 116.041 28.9383H117.726ZM111.725 26.3437H116.05C116.065 26.0561 116.021 25.7682 115.922 25.4982C115.822 25.2282 115.668 24.9819 115.468 24.7746C115.269 24.5675 115.03 24.4039 114.764 24.2942C114.499 24.1846 114.214 24.1312 113.928 24.1373C113.638 24.1356 113.352 24.1914 113.085 24.3016C112.817 24.4118 112.574 24.5741 112.369 24.7792C112.164 24.9844 112.002 25.2283 111.891 25.4968C111.781 25.7652 111.725 26.0532 111.725 26.3437ZM49.3666 10.5931C49.7388 10.5662 50.1123 10.6227 50.4601 10.7585C50.808 10.8943 51.1215 11.1061 51.3781 11.3784C51.6347 11.6507 51.828 11.9769 51.9439 12.3333C52.0599 12.6898 52.0957 13.0678 52.0487 13.4399C52.0487 15.2702 51.0645 16.3224 49.3666 16.3224H47.3075V10.593L49.3666 10.5931ZM48.1929 15.5121H49.2677C49.5337 15.528 49.7998 15.4842 50.0468 15.3838C50.2938 15.2833 50.5153 15.1287 50.6954 14.9314C50.8755 14.734 51.0095 14.4987 51.0877 14.2427C51.1659 13.9868 51.1864 13.7164 51.1475 13.4515C51.1835 13.1876 51.161 12.919 51.0816 12.6649C51.0022 12.4108 50.8679 12.1774 50.6882 11.9816C50.5085 11.7858 50.288 11.6324 50.0425 11.5322C49.7969 11.4322 49.5323 11.3879 49.2677 11.4027H48.1929V15.5121ZM53.0489 14.1586C53.0218 13.8744 53.0542 13.5878 53.1438 13.3169C53.2334 13.0461 53.3784 12.7971 53.5694 12.5859C53.7604 12.3747 53.9932 12.2059 54.2529 12.0903C54.5126 11.9749 54.7935 11.9153 55.0775 11.9153C55.3615 11.9153 55.6423 11.9749 55.9021 12.0903C56.1617 12.2059 56.3946 12.3747 56.5855 12.5859C56.7765 12.7971 56.9215 13.0461 57.0111 13.3169C57.1009 13.5878 57.1331 13.8744 57.1061 14.1586C57.1337 14.4431 57.1018 14.7302 57.0125 15.0016C56.9232 15.2729 56.7783 15.5224 56.5872 15.7342C56.3961 15.9458 56.1631 16.115 55.9031 16.2308C55.6431 16.3465 55.3619 16.4064 55.0775 16.4064C54.7931 16.4064 54.5119 16.3465 54.2519 16.2308C53.9919 16.115 53.7588 15.9458 53.5678 15.7342C53.3768 15.5224 53.2319 15.2729 53.1424 15.0016C53.0531 14.7302 53.0212 14.4431 53.0489 14.1586ZM56.2329 14.1586C56.2329 13.2213 55.8141 12.6733 55.0789 12.6733C54.341 12.6733 53.9258 13.2213 53.9258 14.1586C53.9258 15.1033 54.3411 15.6472 55.0789 15.6472C55.8141 15.6472 56.2329 15.0996 56.2329 14.1586ZM62.4995 16.3223H61.6187L60.7296 13.1379H60.6625L59.7772 16.3223H58.9049L57.7191 11.9986H58.5802L59.3508 15.2978H59.4142L60.2987 11.9986H61.1131L61.9975 15.2978H62.0647L62.8315 11.9986H63.6806L62.4995 16.3223ZM64.6778 11.9987H65.4951V12.6855H65.5585C65.6662 12.4388 65.8477 12.2319 66.0777 12.0938C66.3079 11.9558 66.5751 11.8933 66.8423 11.9152C67.0516 11.8993 67.2617 11.931 67.4572 12.0079C67.6526 12.0849 67.8284 12.205 67.9713 12.3595C68.1144 12.5139 68.221 12.6986 68.2832 12.9001C68.3456 13.1016 68.3619 13.3145 68.3313 13.5232V16.3222H67.4822V13.7376C67.4822 13.0428 67.1817 12.6972 66.554 12.6972C66.4118 12.6905 66.27 12.7149 66.1381 12.7685C66.0062 12.8221 65.8874 12.9037 65.7899 13.0078C65.6923 13.1118 65.6183 13.2359 65.5729 13.3714C65.5275 13.5069 65.5117 13.6506 65.5267 13.7929V16.3223H64.6778V11.9987ZM69.6839 10.3107H70.5329V16.3223H69.6839V10.3107ZM71.7131 14.1586C71.686 13.8744 71.7183 13.5877 71.808 13.3168C71.8976 13.046 72.0426 12.7969 72.2337 12.5856C72.4247 12.3744 72.6576 12.2056 72.9173 12.09C73.177 11.9746 73.4579 11.915 73.7419 11.915C74.026 11.915 74.3069 11.9746 74.5666 12.09C74.8264 12.2056 75.0592 12.3744 75.2502 12.5856C75.4413 12.7969 75.5863 13.046 75.6759 13.3168C75.7656 13.5877 75.7979 13.8744 75.7709 14.1586C75.7984 14.4431 75.7663 14.7301 75.6769 15.0014C75.5874 15.2726 75.4425 15.522 75.2515 15.7337C75.0604 15.9453 74.8273 16.1143 74.5674 16.2301C74.3074 16.3458 74.0262 16.4056 73.7419 16.4056C73.4576 16.4056 73.1764 16.3458 72.9165 16.2301C72.6565 16.1143 72.4236 15.9453 72.2325 15.7337C72.0414 15.522 71.8965 15.2726 71.807 15.0014C71.7176 14.7301 71.6856 14.4431 71.7131 14.1586ZM74.8971 14.1586C74.8971 13.2213 74.4782 12.6733 73.7431 12.6733C73.0051 12.6733 72.5901 13.2213 72.5901 14.1586C72.5901 15.1033 73.0052 15.6472 73.7431 15.6472C74.4782 15.6472 74.8971 15.0996 74.8971 14.1586ZM76.6646 15.0996C76.6646 14.3213 77.2411 13.8726 78.2645 13.8088L79.4297 13.7413V13.3681C79.4297 12.9114 79.1294 12.6536 78.5491 12.6536C78.0752 12.6536 77.7468 12.8285 77.6525 13.1341H76.8306C76.9174 12.3915 77.6125 11.9153 78.5883 11.9153C79.6668 11.9153 80.2751 12.4548 80.2751 13.3681V16.3223H79.4578V15.7147H79.3906C79.2542 15.9326 79.0628 16.1103 78.8358 16.2296C78.6088 16.3489 78.3543 16.4054 78.0985 16.3935C77.9179 16.4124 77.7355 16.393 77.5627 16.3367C77.39 16.2803 77.231 16.1882 77.0959 16.0663C76.9608 15.9444 76.8526 15.7953 76.7784 15.6288C76.704 15.4623 76.6653 15.2821 76.6646 15.0996ZM79.4297 14.7301V14.3686L78.3793 14.4361C77.7869 14.4759 77.5182 14.6786 77.5182 15.0596C77.5182 15.4488 77.854 15.6753 78.3159 15.6753C78.4512 15.6891 78.5879 15.6753 78.7178 15.635C78.8478 15.5945 78.9683 15.5283 79.0721 15.44C79.1761 15.3518 79.2614 15.2436 79.3227 15.1216C79.3842 14.9996 79.4206 14.8665 79.4297 14.7301ZM81.3909 14.1586C81.3909 12.7923 82.0896 11.9269 83.1764 11.9269C83.4453 11.9145 83.7121 11.9792 83.9457 12.1135C84.1793 12.2478 84.3701 12.4463 84.4956 12.6855H84.559V10.3106H85.408V16.3222H84.5945V15.639H84.5274C84.3921 15.8766 84.1947 16.0725 83.9566 16.2055C83.7185 16.3385 83.4488 16.4035 83.1765 16.3934C82.0822 16.3934 81.3909 15.5279 81.3909 14.1585V14.1586ZM82.2679 14.1586C82.2679 15.0756 82.6979 15.6275 83.4171 15.6275C84.1326 15.6275 84.5749 15.0677 84.5749 14.1623C84.5749 13.2612 84.1281 12.6935 83.4171 12.6935C82.7025 12.6935 82.2679 13.249 82.2679 14.1586ZM88.9205 14.1586C88.8934 13.8744 88.9258 13.5878 89.0154 13.3169C89.1051 13.0461 89.25 12.7971 89.441 12.5859C89.6321 12.3747 89.8649 12.2059 90.1245 12.0903C90.3843 11.9749 90.6651 11.9153 90.9491 11.9153C91.2331 11.9153 91.5139 11.9749 91.7737 12.0903C92.0333 12.2059 92.2662 12.3747 92.4572 12.5859C92.6482 12.7971 92.7931 13.0461 92.8828 13.3169C92.9725 13.5878 93.0047 13.8744 92.9778 14.1586C93.0053 14.4431 92.9735 14.7302 92.8841 15.0016C92.7947 15.2729 92.6499 15.5224 92.4588 15.7342C92.2678 15.9458 92.0347 16.115 91.7747 16.2308C91.5147 16.3465 91.2335 16.4064 90.9491 16.4064C90.6647 16.4064 90.3835 16.3465 90.1235 16.2308C89.8635 16.115 89.6305 15.9458 89.4395 15.7342C89.2484 15.5224 89.1035 15.2729 89.0141 15.0016C88.9247 14.7302 88.8929 14.4431 88.9205 14.1586ZM92.1046 14.1586C92.1046 13.2213 91.6857 12.6733 90.9506 12.6733C90.2126 12.6733 89.7974 13.2213 89.7974 14.1586C89.7974 15.1033 90.2127 15.6472 90.9506 15.6472C91.6857 15.6472 92.1046 15.0996 92.1046 14.1586ZM94.1169 11.9987H94.9341V12.6855H94.9976C95.1052 12.4388 95.2867 12.2319 95.5168 12.0938C95.7469 11.9558 96.0142 11.8933 96.2813 11.9152C96.4906 11.8993 96.7008 11.931 96.8962 12.0079C97.0917 12.0849 97.2675 12.205 97.4104 12.3595C97.5538 12.5139 97.66 12.6986 97.7224 12.9001C97.7847 13.1016 97.8013 13.3145 97.7701 13.5232V16.3222H96.9213V13.7376C96.9213 13.0428 96.6209 12.6972 95.993 12.6972C95.8509 12.6905 95.709 12.7149 95.5772 12.7685C95.4453 12.8221 95.3265 12.9037 95.229 13.0078C95.1313 13.1118 95.0574 13.2359 95.012 13.3714C94.9666 13.5069 94.9508 13.6506 94.9659 13.7929V16.3223H94.117L94.1169 11.9987ZM102.568 10.9222V12.0183H103.499V12.737H102.568V14.9602C102.568 15.4132 102.753 15.6116 103.176 15.6116C103.284 15.6112 103.392 15.6046 103.499 15.5918V16.3026C103.347 16.33 103.192 16.3446 103.037 16.3461C102.093 16.3461 101.717 16.0123 101.717 15.1788V12.737H101.034V12.0182H101.717V10.9223L102.568 10.9222ZM104.659 10.3107H105.501V12.6935H105.568C105.681 12.4444 105.867 12.2365 106.102 12.0978C106.336 11.9592 106.608 11.8967 106.879 11.9189C107.088 11.9075 107.296 11.9424 107.489 12.0212C107.682 12.1 107.855 12.2206 107.998 12.3747C108.139 12.5286 108.245 12.7121 108.308 12.9119C108.371 13.1117 108.388 13.3231 108.361 13.5308V16.3223H107.511V13.7413C107.511 13.0506 107.191 12.701 106.591 12.701C106.446 12.6889 106.298 12.709 106.161 12.76C106.024 12.811 105.899 12.8914 105.796 12.9959C105.692 13.1002 105.614 13.2261 105.564 13.3645C105.514 13.5028 105.495 13.6505 105.508 13.7971V16.3223H104.659V10.3107ZM113.311 15.1548C113.196 15.5499 112.945 15.8918 112.605 16.1205C112.264 16.3492 111.854 16.4501 111.447 16.4057C111.163 16.4133 110.882 16.3587 110.622 16.2459C110.361 16.133 110.129 15.9646 109.94 15.7522C109.751 15.5399 109.609 15.2888 109.526 15.0163C109.444 14.7437 109.421 14.4563 109.46 14.1741C109.422 13.8909 109.446 13.6029 109.528 13.3295C109.61 13.0562 109.751 12.8038 109.939 12.5897C110.127 12.3754 110.359 12.2044 110.618 12.088C110.878 11.9717 111.159 11.9127 111.443 11.9152C112.64 11.9152 113.362 12.737 113.362 14.0947V14.3925H110.324V14.4403C110.312 14.599 110.331 14.7587 110.383 14.9092C110.435 15.0597 110.517 15.1977 110.625 15.3143C110.733 15.4309 110.864 15.5236 111.009 15.5864C111.155 15.6492 111.312 15.6808 111.47 15.6789C111.674 15.7035 111.879 15.6667 112.062 15.5734C112.244 15.4801 112.394 15.3343 112.493 15.1548H113.311ZM110.324 13.7614H112.497C112.508 13.6163 112.488 13.4706 112.44 13.3336C112.391 13.1965 112.315 13.0712 112.215 12.9658C112.115 12.8603 111.994 12.777 111.861 12.721C111.727 12.6652 111.583 12.6381 111.439 12.6414C111.292 12.6396 111.146 12.6672 111.01 12.7229C110.874 12.7785 110.75 12.8609 110.647 12.9654C110.543 13.0697 110.461 13.194 110.405 13.3307C110.351 13.4674 110.322 13.6139 110.324 13.7614Z" fill="#123060"/>
</g>
<defs>
<clipPath id="clip0_2431_248432">
<rect width="140.304" height="44.8194" fill="white"/>
</clipPath>
</defs>
</svg>
