<svg width="132" height="19" viewBox="0 0 132 19" fill="none" xmlns="http://www.w3.org/2000/svg">
<path d="M7.61241 7.98633C7.37544 7.98633 7.17969 8.18062 7.17969 8.41582V12.1892C7.17969 12.4244 7.37544 12.6187 7.61241 12.6187H11.4142C11.6511 12.6187 11.8469 12.4244 11.8469 12.1892V8.41582C11.8469 8.18062 11.6511 7.98633 11.4142 7.98633H7.61241Z" fill="url(#paint0_linear_3023_29966)"/>
<path d="M4.04957 15.9594C3.79199 15.9594 3.58594 16.164 3.58594 16.4196V18.5262C3.58594 18.7818 3.79199 18.9864 4.04957 18.9864H6.17196C6.42953 18.9864 6.63559 18.7818 6.63559 18.5262V16.4094C6.63559 16.1537 6.42953 15.9492 6.17196 15.9492H4.04957V15.9594Z" fill="url(#paint1_linear_3023_29966)"/>
<path d="M0.463629 15.9594C0.206057 15.9594 0 16.164 0 16.4196V18.5262C0 18.7818 0.206057 18.9864 0.463629 18.9864H2.58602C2.84359 18.9864 3.04965 18.7818 3.04965 18.5262V16.4094C3.04965 16.1537 2.84359 15.9492 2.58602 15.9492H0.463629V15.9594Z" fill="url(#paint2_linear_3023_29966)"/>
<path d="M0.46363 12.7988C0.206058 12.7988 0 13.0033 0 13.259V14.8031C0 15.0588 0.206058 15.2633 0.46363 15.2633H2.01936C2.27694 15.2633 2.48299 15.0588 2.48299 14.8031V13.259C2.48299 13.0033 2.27694 12.7988 2.01936 12.7988H0.46363Z" fill="url(#paint3_linear_3023_29966)"/>
<path d="M0.46363 9.88867C0.206058 9.88867 0 10.0932 0 10.3488V11.6578C0 11.9134 0.206058 12.1179 0.46363 12.1179H1.7824C2.03997 12.1179 2.24603 11.9134 2.24603 11.6578V10.3488C2.24603 10.0932 2.03997 9.88867 1.7824 9.88867H0.46363Z" fill="url(#paint4_linear_3023_29966)"/>
<path d="M0.46363 7.48242C0.206058 7.48242 0 7.68694 0 7.94259V8.74023C0 8.99588 0.206058 9.2004 0.46363 9.2004H1.26726C1.52483 9.2004 1.73089 8.99588 1.73089 8.74023V7.94259C1.73089 7.68694 1.52483 7.48242 1.26726 7.48242H0.46363Z" fill="url(#paint5_linear_3023_29966)"/>
<path d="M7.5712 13.25C7.35484 13.25 7.17969 13.4238 7.17969 13.6386V18.588C7.17969 18.8027 7.35484 18.9766 7.5712 18.9766H14.2578C14.4741 18.9766 14.6493 18.8027 14.6493 18.588V13.6386C14.6493 13.4238 14.4741 13.25 14.2578 13.25H7.5712Z" fill="url(#paint6_linear_3023_29966)"/>
<path d="M12.9722 5.3278C12.6116 5.22554 12.2407 5.17441 11.8492 5.17441C10.345 5.17441 9.03653 5.98226 8.33594 7.18893H11.8492C12.2716 7.18893 12.6013 7.52639 12.6013 7.93543V12.619H15.8158C16.197 12.619 16.5061 12.9257 16.5061 13.3041V19H28.4677C31.5277 19 34.0004 16.5458 34.0004 13.5086C34.0004 10.7885 32.0119 8.53877 29.395 8.09905C29.2096 3.58937 25.4696 3.53593e-05 20.8848 3.53593e-05C17.2891 -0.0101907 14.2189 2.19863 12.9722 5.3278Z" fill="url(#paint7_linear_3023_29966)"/>
<path d="M95.4138 12.1695C95.4138 9.8125 97.375 7.89953 99.8048 7.89953C102.235 7.89953 104.196 9.8125 104.196 12.1695C104.196 14.5266 102.235 16.4396 99.8048 16.4396C97.3924 16.4396 95.4138 14.5266 95.4138 12.1695ZM93.8691 12.1695C93.8691 15.3635 96.5246 17.9426 99.8048 17.9426C103.085 17.9426 105.74 15.3635 105.74 12.1695C105.74 8.97557 103.085 6.39648 99.8048 6.39648C96.5419 6.39648 93.8691 8.97557 93.8691 12.1695Z" fill="url(#paint8_linear_3023_29966)"/>
<path d="M76.5996 12.1695C76.5996 15.3635 79.255 17.9426 82.5353 17.9426C85.2428 17.9426 87.5164 16.1834 88.228 13.7922H86.5965C85.937 15.3464 84.3576 16.4396 82.5353 16.4396C80.1055 16.4396 78.1443 14.5266 78.1443 12.1695C78.1443 9.8125 80.1055 7.89953 82.5353 7.89953C84.3924 7.89953 85.9717 9.00974 86.6139 10.5811H88.2453C87.5337 8.17281 85.2428 6.39648 82.5353 6.39648C79.255 6.39648 76.5996 8.97557 76.5996 12.1695Z" fill="url(#paint9_linear_3023_29966)"/>
<path d="M91.8379 1.99414H90.3105V17.5882H91.8379V1.99414Z" fill="url(#paint10_linear_3023_29966)"/>
<path d="M121.674 12.1739C121.674 9.8168 123.635 7.90384 126.065 7.90384C128.494 7.90384 130.456 9.8168 130.456 12.1739C130.456 14.5309 128.494 16.4439 126.065 16.4439C123.635 16.4439 121.674 14.5309 121.674 12.1739ZM130.456 1.99414V8.8774C129.553 7.56224 127.8 6.4008 126.065 6.4008C122.784 6.4008 120.129 8.97988 120.129 12.1739C120.129 15.3678 122.784 17.9469 126.065 17.9469C127.8 17.9469 129.38 17.2125 130.456 16.051C131.323 15.1116 131.896 13.8989 131.983 12.5667C132 12.4301 132 12.3105 132 12.1739C132 12.0372 132 11.9177 131.983 11.781V1.99414H130.456Z" fill="url(#paint11_linear_3023_29966)"/>
<path d="M116.866 6.7207V12.9037C116.866 14.8167 115.287 16.388 113.325 16.388H112.544C110.601 16.388 109.004 14.8337 109.004 12.9037V6.7207H107.477V13.1599C107.477 15.7561 109.629 17.874 112.267 17.874H113.586C116.224 17.874 118.376 15.7561 118.376 13.1599V6.7207H116.866Z" fill="url(#paint12_linear_3023_29966)"/>
<path d="M64.163 6.39453C61.4208 6.39453 59.1992 8.58078 59.1992 11.2794V17.582H60.7265V11.194C60.7265 9.36646 62.2191 7.89758 64.0762 7.89758H65.2911C67.1482 7.89758 68.6408 9.36646 68.6408 11.194V17.582H70.1681V11.2794C70.1681 8.58078 67.9465 6.39453 65.2043 6.39453H64.163Z" fill="url(#paint13_linear_3023_29966)"/>
<path d="M74.1757 6.69531H72.6484V17.5924H74.1757V6.69531Z" fill="url(#paint14_linear_3023_29966)"/>
<path d="M55.4482 3.12109V12.3614C55.4482 14.411 53.7473 16.0849 51.6646 16.0849H50.3109C48.2282 16.0849 46.5273 14.4281 46.5273 12.3614V3.12109H45V12.2931C45 15.2138 47.4125 17.5879 50.3803 17.5879H51.5778C54.5457 17.5879 56.9581 15.2138 56.9581 12.2931V3.12109H55.4482Z" fill="url(#paint15_linear_3023_29966)"/>
<path d="M72.2305 3.70246C72.2305 4.33441 72.7511 4.86389 73.4107 4.86389C74.0528 4.86389 74.5908 4.35149 74.5908 3.70246C74.5908 3.0705 74.0702 2.54102 73.4107 2.54102C72.7685 2.54102 72.2305 3.0705 72.2305 3.70246Z" fill="url(#paint16_linear_3023_29966)"/>
<defs>
<linearGradient id="paint0_linear_3023_29966" x1="9.51329" y1="7.77526" x2="9.51329" y2="19.1675" gradientUnits="userSpaceOnUse">
<stop stop-color="#F58220"/>
<stop offset="1" stop-color="#F04E25"/>
</linearGradient>
<linearGradient id="paint1_linear_3023_29966" x1="5.11076" y1="7.77206" x2="5.11076" y2="19.1643" gradientUnits="userSpaceOnUse">
<stop stop-color="#F58220"/>
<stop offset="1" stop-color="#F04E25"/>
</linearGradient>
<linearGradient id="paint2_linear_3023_29966" x1="1.52481" y1="7.77206" x2="1.52481" y2="19.1643" gradientUnits="userSpaceOnUse">
<stop stop-color="#F58220"/>
<stop offset="1" stop-color="#F04E25"/>
</linearGradient>
<linearGradient id="paint3_linear_3023_29966" x1="1.24149" y1="7.7713" x2="1.24149" y2="19.1635" gradientUnits="userSpaceOnUse">
<stop stop-color="#F58220"/>
<stop offset="1" stop-color="#F04E25"/>
</linearGradient>
<linearGradient id="paint4_linear_3023_29966" x1="1.12301" y1="7.77557" x2="1.12301" y2="19.1677" gradientUnits="userSpaceOnUse">
<stop stop-color="#F58220"/>
<stop offset="1" stop-color="#F04E25"/>
</linearGradient>
<linearGradient id="paint5_linear_3023_29966" x1="0.865443" y1="7.77243" x2="0.865443" y2="19.1647" gradientUnits="userSpaceOnUse">
<stop stop-color="#F58220"/>
<stop offset="1" stop-color="#F04E25"/>
</linearGradient>
<linearGradient id="paint6_linear_3023_29966" x1="10.9145" y1="7.77253" x2="10.9145" y2="19.1647" gradientUnits="userSpaceOnUse">
<stop stop-color="#F58220"/>
<stop offset="1" stop-color="#F04E25"/>
</linearGradient>
<linearGradient id="paint7_linear_3023_29966" x1="21.1682" y1="0.0792462" x2="21.1682" y2="18.8641" gradientUnits="userSpaceOnUse">
<stop stop-color="#2DC3E8"/>
<stop offset="1" stop-color="#0097D6"/>
</linearGradient>
<linearGradient id="paint8_linear_3023_29966" x1="99.8048" y1="1.72597" x2="99.8048" y2="17.2555" gradientUnits="userSpaceOnUse">
<stop stop-color="#2DC3E8"/>
<stop offset="1" stop-color="#0097D6"/>
</linearGradient>
<linearGradient id="paint9_linear_3023_29966" x1="82.4225" y1="1.72597" x2="82.4225" y2="17.2555" gradientUnits="userSpaceOnUse">
<stop stop-color="#2DC3E8"/>
<stop offset="1" stop-color="#0097D6"/>
</linearGradient>
<linearGradient id="paint10_linear_3023_29966" x1="91.0742" y1="1.73029" x2="91.0742" y2="17.2598" gradientUnits="userSpaceOnUse">
<stop stop-color="#2DC3E8"/>
<stop offset="1" stop-color="#0097D6"/>
</linearGradient>
<linearGradient id="paint11_linear_3023_29966" x1="126.065" y1="1.73029" x2="126.065" y2="17.2598" gradientUnits="userSpaceOnUse">
<stop stop-color="#2DC3E8"/>
<stop offset="1" stop-color="#0097D6"/>
</linearGradient>
<linearGradient id="paint12_linear_3023_29966" x1="112.926" y1="1.72567" x2="112.926" y2="17.2552" gradientUnits="userSpaceOnUse">
<stop stop-color="#2DC3E8"/>
<stop offset="1" stop-color="#0097D6"/>
</linearGradient>
<linearGradient id="paint13_linear_3023_29966" x1="64.6837" y1="2.36036" x2="64.6837" y2="17.5492" gradientUnits="userSpaceOnUse">
<stop stop-color="#F58220"/>
<stop offset="1" stop-color="#F04E25"/>
</linearGradient>
<linearGradient id="paint14_linear_3023_29966" x1="73.4121" y1="2.37078" x2="73.4121" y2="17.5597" gradientUnits="userSpaceOnUse">
<stop stop-color="#F58220"/>
<stop offset="1" stop-color="#F04E25"/>
</linearGradient>
<linearGradient id="paint15_linear_3023_29966" x1="50.979" y1="2.36629" x2="50.979" y2="17.5552" gradientUnits="userSpaceOnUse">
<stop stop-color="#F58220"/>
<stop offset="1" stop-color="#F04E25"/>
</linearGradient>
<linearGradient id="paint16_linear_3023_29966" x1="73.4107" y1="2.36694" x2="73.4107" y2="17.5558" gradientUnits="userSpaceOnUse">
<stop stop-color="#F58220"/>
<stop offset="1" stop-color="#F04E25"/>
</linearGradient>
</defs>
</svg>
