<svg width="121" height="40" viewBox="0 0 121 40" fill="none" xmlns="http://www.w3.org/2000/svg">
<path d="M71.3415 21.1675C71.3415 19.6976 72.5557 18.4833 74.0576 18.4833C75.5595 18.4833 76.7738 19.6976 76.7738 21.1675C76.7738 22.6375 75.5595 23.8518 74.0576 23.8518C72.5557 23.8518 71.3415 22.6375 71.3415 21.1675ZM70.3828 21.1675C70.3828 23.1807 72.0125 24.7784 74.0576 24.7784C76.0708 24.7784 77.7324 23.1487 77.7324 21.1675C77.7324 19.1544 76.1027 17.5566 74.0576 17.5566C72.0125 17.5566 70.3828 19.1863 70.3828 21.1675Z" fill="url(#paint0_linear_3961_41576)"/>
<path d="M59.8066 21.1675C59.8066 23.1807 61.4363 24.7784 63.4815 24.7784C65.1431 24.7784 66.5491 23.692 66.9965 22.1901H66.0059C65.5905 23.1807 64.6318 23.8518 63.4815 23.8518C61.9796 23.8518 60.7653 22.6375 60.7653 21.1675C60.7653 19.6976 61.9796 18.4833 63.4815 18.4833C64.6318 18.4833 65.5905 19.1863 66.0059 20.1769H66.9965C66.5491 18.6751 65.1431 17.5566 63.4815 17.5566C61.4363 17.5566 59.8066 19.1863 59.8066 21.1675Z" fill="url(#paint1_linear_3961_41576)"/>
<path d="M69.2021 15H68.2754V24.7782H69.2021V15Z" fill="url(#paint2_linear_3961_41576)"/>
<path d="M87.6071 21.391C87.6071 19.9211 88.8214 18.7068 90.3232 18.7068C91.8251 18.7068 93.0394 19.9211 93.0394 21.391C93.0394 22.8609 91.8251 24.0752 90.3232 24.0752C88.8533 24.0752 87.6071 22.8609 87.6071 21.391ZM93.0394 15V19.3139C92.4962 18.4831 91.4097 17.7801 90.3232 17.7801C88.3101 17.7801 86.6484 19.4098 86.6484 21.391C86.6484 23.4041 88.2781 25.0019 90.3232 25.0019C91.4097 25.0019 92.3684 24.5545 93.0394 23.8196C93.5826 23.2444 93.9341 22.4774 93.9661 21.6466C93.9661 21.5508 93.9661 21.4868 93.9661 21.391C93.9661 21.2951 93.9661 21.2312 93.9661 21.1353V15H93.0394Z" fill="url(#paint3_linear_3961_41576)"/>
<path d="M84.6679 17.9727V21.8392C84.6679 23.0535 83.6773 24.0121 82.495 24.0121H82.0156C80.8014 24.0121 79.8427 23.0215 79.8427 21.8392V17.9727H78.916V21.999C78.916 23.6287 80.2262 24.9708 81.8878 24.9708H82.7186C84.3483 24.9708 85.6905 23.6606 85.6905 21.999V17.9727H84.6679Z" fill="url(#paint4_linear_3961_41576)"/>
<path d="M52.138 17.7812C50.4444 17.7812 49.0703 19.1553 49.0703 20.8489V24.8113H49.997V20.817C49.997 19.6666 50.9237 18.7399 52.0741 18.7399H52.809C53.9594 18.7399 54.8861 19.6666 54.8861 20.817V24.8113H55.8128V20.8489C55.8128 19.1553 54.4387 17.7812 52.7451 17.7812H52.138Z" fill="url(#paint5_linear_3961_41576)"/>
<path d="M58.3056 17.9727H57.3789V24.811H58.3056V17.9727Z" fill="url(#paint6_linear_3961_41576)"/>
<path d="M46.7693 15.7031V21.5189C46.7693 22.7971 45.7148 23.8516 44.4366 23.8516H43.6058C42.3276 23.8516 41.2731 22.7971 41.2731 21.5189V15.7031H40.3145V21.455C40.3145 23.2764 41.8163 24.7783 43.6378 24.7783H44.3727C46.1942 24.7783 47.696 23.2764 47.696 21.455V15.7031H46.7693Z" fill="url(#paint7_linear_3961_41576)"/>
<path d="M57.123 16.0865C57.123 16.5019 57.4426 16.8215 57.858 16.8215C58.2734 16.8215 58.593 16.5019 58.593 16.0865C58.593 15.6711 58.2734 15.3516 57.858 15.3516C57.4426 15.3516 57.123 15.6711 57.123 16.0865Z" fill="url(#paint8_linear_3961_41576)"/>
<path d="M99.9747 24.1389C97.7378 24.1389 95.9164 22.3175 95.9164 20.0807C95.9164 17.8438 97.7378 16.0224 99.9747 16.0224C101.732 16.0224 103.202 17.1408 103.777 18.7066H104.832C104.225 16.6295 102.275 15.0957 99.9747 15.0957C97.1626 15.0957 94.9258 17.3325 94.9258 20.0807C94.9258 22.8288 97.1946 25.0656 99.9747 25.0656C102.275 25.0656 104.225 23.5318 104.832 21.4547H103.777C103.234 23.0205 101.732 24.1389 99.9747 24.1389Z" fill="url(#paint9_linear_3961_41576)"/>
<path d="M114.226 25.0019L109.21 15L104.225 25.0019H105.279L106.429 22.7331L107.963 24.1711H110.52L112.022 22.6692L113.204 25.0019H114.226ZM110.104 23.2444H108.283L106.813 21.8703L108.986 17.5244V20.6241C108.762 20.7199 108.602 20.9117 108.602 21.1673C108.602 21.4868 108.858 21.7744 109.21 21.7744C109.529 21.7744 109.817 21.5188 109.817 21.1673C109.817 20.9117 109.657 20.688 109.433 20.6241V17.5244L111.574 21.8064L110.104 23.2444Z" fill="url(#paint10_linear_3961_41576)"/>
<path d="M32.5 22.5C32.4762 27.1667 25.5238 27.1667 25.5 22.5C25.5 17.8333 32.4762 17.8333 32.5 22.5Z" fill="url(#paint11_linear_3961_41576)"/>
<path fill-rule="evenodd" clip-rule="evenodd" d="M28.8394 17.8459C29.4343 17.8459 29.9795 17.9429 30.5 18.1369V8H7.5V25H24.403C22.6433 21.8959 25.1466 17.7489 28.8394 17.8459ZM26.8319 11.7347H11.1681V12.8745H26.8319V11.7347ZM11.1681 16.0029H26.8319V17.1427H11.1681V16.0029Z" fill="url(#paint12_linear_3961_41576)"/>
<path d="M28.5 27.567C27.7771 27.567 27.1024 27.3608 26.5 27V32L28.5 30.7629L30.5 32V27C29.8976 27.3608 29.1988 27.567 28.5 27.567Z" fill="url(#paint13_linear_3961_41576)"/>
<defs>
<linearGradient id="paint0_linear_3961_41576" x1="74.0423" y1="14.6193" x2="74.0423" y2="24.3579" gradientUnits="userSpaceOnUse">
<stop stop-color="#2DC3E8"/>
<stop offset="1" stop-color="#0097D6"/>
</linearGradient>
<linearGradient id="paint1_linear_3961_41576" x1="63.4045" y1="14.6202" x2="63.4045" y2="24.3586" gradientUnits="userSpaceOnUse">
<stop stop-color="#2DC3E8"/>
<stop offset="1" stop-color="#0097D6"/>
</linearGradient>
<linearGradient id="paint2_linear_3961_41576" x1="68.7436" y1="14.8437" x2="68.7436" y2="24.582" gradientUnits="userSpaceOnUse">
<stop stop-color="#2DC3E8"/>
<stop offset="1" stop-color="#0097D6"/>
</linearGradient>
<linearGradient id="paint3_linear_3961_41576" x1="90.3373" y1="14.8437" x2="90.3373" y2="24.582" gradientUnits="userSpaceOnUse">
<stop stop-color="#2DC3E8"/>
<stop offset="1" stop-color="#0097D6"/>
</linearGradient>
<linearGradient id="paint4_linear_3961_41576" x1="82.2371" y1="14.8446" x2="82.2371" y2="24.5828" gradientUnits="userSpaceOnUse">
<stop stop-color="#2DC3E8"/>
<stop offset="1" stop-color="#0097D6"/>
</linearGradient>
<linearGradient id="paint5_linear_3961_41576" x1="52.4459" y1="15.2437" x2="52.4459" y2="24.7688" gradientUnits="userSpaceOnUse">
<stop stop-color="#2DC3E8"/>
<stop offset="1" stop-color="#0097D6"/>
</linearGradient>
<linearGradient id="paint6_linear_3961_41576" x1="57.84" y1="15.2434" x2="57.84" y2="24.7685" gradientUnits="userSpaceOnUse">
<stop stop-color="#2DC3E8"/>
<stop offset="1" stop-color="#0097D6"/>
</linearGradient>
<linearGradient id="paint7_linear_3961_41576" x1="44.006" y1="15.2427" x2="44.006" y2="24.7678" gradientUnits="userSpaceOnUse">
<stop stop-color="#2DC3E8"/>
<stop offset="1" stop-color="#0097D6"/>
</linearGradient>
<linearGradient id="paint8_linear_3961_41576" x1="57.8402" y1="15.2426" x2="57.8402" y2="24.7677" gradientUnits="userSpaceOnUse">
<stop stop-color="#2DC3E8"/>
<stop offset="1" stop-color="#0097D6"/>
</linearGradient>
<linearGradient id="paint9_linear_3961_41576" x1="94.9277" y1="20.0811" x2="104.83" y2="20.0811" gradientUnits="userSpaceOnUse">
<stop stop-color="#F58220"/>
<stop offset="1" stop-color="#F04E25"/>
</linearGradient>
<linearGradient id="paint10_linear_3961_41576" x1="104.227" y1="20.0013" x2="114.225" y2="20.0013" gradientUnits="userSpaceOnUse">
<stop stop-color="#F58220"/>
<stop offset="1" stop-color="#F04E25"/>
</linearGradient>
<linearGradient id="paint11_linear_3961_41576" x1="28.986" y1="18.8804" x2="28.986" y2="25.8633" gradientUnits="userSpaceOnUse">
<stop stop-color="#F58220"/>
<stop offset="1" stop-color="#F04E25"/>
</linearGradient>
<linearGradient id="paint12_linear_3961_41576" x1="7.50441" y1="16.5007" x2="30.4965" y2="16.5007" gradientUnits="userSpaceOnUse">
<stop stop-color="#F58220"/>
<stop offset="1" stop-color="#F04E25"/>
</linearGradient>
<linearGradient id="paint13_linear_3961_41576" x1="28.4942" y1="26.1206" x2="28.4942" y2="32.642" gradientUnits="userSpaceOnUse">
<stop stop-color="#F58220"/>
<stop offset="1" stop-color="#F04E25"/>
</linearGradient>
</defs>
</svg>
