<svg width="24" height="24" viewBox="0 0 24 24" fill="none" xmlns="http://www.w3.org/2000/svg">
<path fill-rule="evenodd" clip-rule="evenodd" d="M11.3069 2.53523C12.0032 2.47165 12.926 2.47237 13.845 2.72409C16.797 3.53302 18.9661 6.23601 18.9661 9.44539V14.2237C18.9661 14.2538 18.975 14.2833 18.9917 14.3084L20.8548 17.1039C21.0317 17.3692 21.0481 17.7104 20.8977 17.9915C20.7473 18.2727 20.4544 18.4482 20.1356 18.4482H15.5233C15.4474 18.4482 15.383 18.504 15.3723 18.5792C15.1361 20.2305 13.7161 21.5 12 21.5C10.2839 21.5 8.86386 20.2305 8.62773 18.5792C8.61698 18.504 8.55263 18.4482 8.47672 18.4482H3.86441C3.54562 18.4482 3.25271 18.2727 3.10228 17.9915C2.95186 17.7104 2.96835 17.3692 3.14518 17.1039L5.00828 14.3084C5.02499 14.2833 5.0339 14.2538 5.0339 14.2237V9.44539C5.0339 6.23601 7.20378 3.53281 10.1558 2.72388L10.1593 2.72295L10.1742 2.71907C10.1876 2.71563 10.2079 2.71055 10.2346 2.70421C10.2881 2.69153 10.3671 2.67381 10.468 2.65406C10.67 2.61453 10.9594 2.56696 11.3069 2.53523ZM10.5614 18.4482C10.5119 18.4482 10.4654 18.4722 10.4368 18.5127C10.4082 18.5531 10.4011 18.6049 10.4176 18.6516C10.6478 19.3034 11.2692 19.7706 12 19.7706C12.7308 19.7706 13.3522 19.3034 13.5824 18.6516C13.5989 18.6049 13.5918 18.5531 13.5632 18.5127C13.5346 18.4722 13.4881 18.4482 13.4386 18.4482H10.5614ZM5.63767 16.4816C5.60647 16.5284 5.60356 16.5886 5.6301 16.6383C5.65665 16.6879 5.70834 16.7188 5.76459 16.7188H18.2354C18.2917 16.7188 18.3434 16.6879 18.3699 16.6383C18.3964 16.5886 18.3935 16.5284 18.3623 16.4816L17.3825 15.0114C17.2878 14.8693 17.2373 14.7024 17.2373 14.5317V9.44539C17.2373 6.55201 14.8925 4.20646 12 4.20646C9.10753 4.20646 6.76271 6.55201 6.76271 9.44539V14.5317C6.76271 14.7024 6.7122 14.8693 6.61754 15.0114L5.63767 16.4816Z" fill="#212633"/>
<circle cx="17" cy="5" r="3" fill="#FF3B49"/>
</svg>
