<svg width="149" height="85" viewBox="0 0 149 85" fill="none" xmlns="http://www.w3.org/2000/svg">
<g clip-path="url(#clip0_2431_248402)">
<path d="M62.4232 76.8839C62.4232 73.9441 64.8517 71.5155 67.8555 71.5155C70.8592 71.5155 73.2878 73.9441 73.2878 76.8839C73.2878 79.8238 70.8592 82.2523 67.8555 82.2523C64.8517 82.2523 62.4232 79.8238 62.4232 76.8839ZM60.5059 76.8839C60.5059 80.9102 63.7653 84.1057 67.8555 84.1057C71.8818 84.1057 75.2051 80.8463 75.2051 76.8839C75.2051 72.8576 71.9457 69.6621 67.8555 69.6621C63.7653 69.6621 60.5059 72.9215 60.5059 76.8839Z" fill="url(#paint0_linear_2431_248402)"/>
<path d="M39.3496 76.8839C39.3496 80.9102 42.609 84.1057 46.6992 84.1057C50.0225 84.1057 52.8346 81.9328 53.7293 78.929H51.7481C50.9173 80.9102 49 82.2523 46.6992 82.2523C43.6955 82.2523 41.2669 79.8238 41.2669 76.8839C41.2669 73.9441 43.6955 71.5155 46.6992 71.5155C49 71.5155 50.9173 72.9215 51.7481 74.9027H53.7293C52.8346 71.8989 50.0225 69.6621 46.6992 69.6621C42.609 69.6621 39.3496 72.9215 39.3496 76.8839Z" fill="url(#paint1_linear_2431_248402)"/>
<path d="M58.1405 64.5488H56.2871V84.1052H58.1405V64.5488Z" fill="url(#paint2_linear_2431_248402)"/>
<path d="M94.9524 77.3308C94.9524 74.3909 97.381 71.9624 100.385 71.9624C103.389 71.9624 105.817 74.3909 105.817 77.3308C105.817 80.2706 103.389 82.6992 100.385 82.6992C97.4449 82.6992 94.9524 80.2706 94.9524 77.3308ZM105.817 64.5488V73.1766C104.731 71.515 102.558 70.109 100.385 70.109C96.3585 70.109 93.0352 73.3684 93.0352 77.3308C93.0352 81.3571 96.2946 84.5526 100.385 84.5526C102.558 84.5526 104.475 83.6579 105.817 82.1879C106.904 81.0376 107.607 79.5037 107.67 77.8421C107.67 77.6503 107.67 77.5225 107.67 77.3308C107.67 77.1391 107.67 77.0112 107.67 76.8195V64.5488H105.817Z" fill="url(#paint3_linear_2431_248402)"/>
<path d="M89.0721 70.4922V78.2253C89.0721 80.6538 87.0909 82.5711 84.7263 82.5711H83.7676C81.339 82.5711 79.4217 80.5899 79.4217 78.2253V70.4922H77.5684V78.5448C77.5684 81.8042 80.1887 84.4884 83.512 84.4884H85.1736C88.433 84.4884 91.1172 81.8681 91.1172 78.5448V70.4922H89.0721Z" fill="url(#paint4_linear_2431_248402)"/>
<path d="M24.0103 70.1094C20.6231 70.1094 17.875 72.8575 17.875 76.2447V84.1695H19.7284V76.1808C19.7284 73.8801 21.5818 72.0267 23.8825 72.0267H25.3524C27.6532 72.0267 29.5066 73.8801 29.5066 76.1808V84.1695H31.36V76.2447C31.36 72.8575 28.6118 70.1094 25.2246 70.1094H24.0103Z" fill="url(#paint5_linear_2431_248402)"/>
<path d="M36.3456 70.4922H34.4922V84.1689H36.3456V70.4922Z" fill="url(#paint6_linear_2431_248402)"/>
<path d="M13.275 65.9551V77.5867C13.275 80.1431 11.166 82.2521 8.6096 82.2521H6.94794C4.39155 82.2521 2.28253 80.1431 2.28253 77.5867V65.9551H0.365234V77.4588C0.365234 81.1017 3.36899 84.1055 7.01185 84.1055H8.48178C12.1246 84.1055 15.1284 81.1017 15.1284 77.4588V65.9551H13.275Z" fill="url(#paint7_linear_2431_248402)"/>
<path d="M33.9824 66.7219C33.9824 67.5527 34.6215 68.1918 35.4523 68.1918C36.2832 68.1918 36.9223 67.5527 36.9223 66.7219C36.9223 65.8911 36.2832 65.252 35.4523 65.252C34.6215 65.252 33.9824 65.8911 33.9824 66.7219Z" fill="url(#paint8_linear_2431_248402)"/>
<path d="M119.684 82.8267C115.21 82.8267 111.567 79.1838 111.567 74.7102C111.567 70.2365 115.21 66.5936 119.684 66.5936C123.199 66.5936 126.139 68.8305 127.289 71.962H129.398C128.184 67.8079 124.285 64.7402 119.684 64.7402C114.06 64.7402 109.586 69.2139 109.586 74.7102C109.586 80.2064 114.124 84.6801 119.684 84.6801C124.285 84.6801 128.184 81.6124 129.398 77.4583H127.289C126.202 80.5899 123.199 82.8267 119.684 82.8267Z" fill="url(#paint9_linear_2431_248402)"/>
<path d="M148.189 84.5526L138.155 64.5488L128.186 84.5526H130.295L132.595 80.015L135.663 82.8909H140.776L143.78 79.8872L146.144 84.5526H148.189ZM139.945 81.0376H136.302L133.362 78.2894L137.708 69.5977V75.7969C137.261 75.9887 136.941 76.3721 136.941 76.8834C136.941 77.5225 137.452 78.0977 138.155 78.0977C138.795 78.0977 139.37 77.5864 139.37 76.8834C139.37 76.3721 139.05 75.9248 138.603 75.7969V69.5977L142.885 78.1616L139.945 81.0376Z" fill="url(#paint10_linear_2431_248402)"/>
<path d="M106.391 38.7929C106.327 51.0635 87.6655 51.0635 87.6016 38.7929C87.6016 26.5222 106.327 26.5222 106.391 38.7929Z" fill="url(#paint11_linear_2431_248402)"/>
<path fill-rule="evenodd" clip-rule="evenodd" d="M97.1884 25.9474C98.7223 25.9474 100.128 26.203 101.47 26.7143V0H42.1621V44.8008H85.7486C81.211 36.6203 87.6659 25.6917 97.1884 25.9474ZM92.0117 9.8421H51.6208V12.8459H92.0117V9.8421ZM51.6208 21.0902H92.0117V24.094H51.6208V21.0902Z" fill="url(#paint12_linear_2431_248402)"/>
<path d="M96.9334 51.1287C95.0161 51.1287 93.2267 50.6174 91.6289 49.7227V62.1211L96.9334 59.0535L102.238 62.1211V49.7227C100.64 50.6174 98.7868 51.1287 96.9334 51.1287Z" fill="url(#paint13_linear_2431_248402)"/>
</g>
<defs>
<linearGradient id="paint0_linear_2431_248402" x1="67.8248" y1="63.7875" x2="67.8248" y2="83.2647" gradientUnits="userSpaceOnUse">
<stop stop-color="#2DC3E8"/>
<stop offset="1" stop-color="#0097D6"/>
</linearGradient>
<linearGradient id="paint1_linear_2431_248402" x1="46.5454" y1="63.7892" x2="46.5454" y2="83.2659" gradientUnits="userSpaceOnUse">
<stop stop-color="#2DC3E8"/>
<stop offset="1" stop-color="#0097D6"/>
</linearGradient>
<linearGradient id="paint2_linear_2431_248402" x1="57.2236" y1="64.2363" x2="57.2236" y2="83.7128" gradientUnits="userSpaceOnUse">
<stop stop-color="#2DC3E8"/>
<stop offset="1" stop-color="#0097D6"/>
</linearGradient>
<linearGradient id="paint3_linear_2431_248402" x1="100.413" y1="64.2363" x2="100.413" y2="83.7128" gradientUnits="userSpaceOnUse">
<stop stop-color="#2DC3E8"/>
<stop offset="1" stop-color="#0097D6"/>
</linearGradient>
<linearGradient id="paint4_linear_2431_248402" x1="84.2105" y1="64.2361" x2="84.2105" y2="83.7126" gradientUnits="userSpaceOnUse">
<stop stop-color="#2DC3E8"/>
<stop offset="1" stop-color="#0097D6"/>
</linearGradient>
<linearGradient id="paint5_linear_2431_248402" x1="24.6262" y1="65.0343" x2="24.6262" y2="84.0845" gradientUnits="userSpaceOnUse">
<stop stop-color="#2DC3E8"/>
<stop offset="1" stop-color="#0097D6"/>
</linearGradient>
<linearGradient id="paint6_linear_2431_248402" x1="35.4143" y1="65.0337" x2="35.4143" y2="84.0839" gradientUnits="userSpaceOnUse">
<stop stop-color="#2DC3E8"/>
<stop offset="1" stop-color="#0097D6"/>
</linearGradient>
<linearGradient id="paint7_linear_2431_248402" x1="7.74841" y1="65.0341" x2="7.74841" y2="84.0844" gradientUnits="userSpaceOnUse">
<stop stop-color="#2DC3E8"/>
<stop offset="1" stop-color="#0097D6"/>
</linearGradient>
<linearGradient id="paint8_linear_2431_248402" x1="35.4167" y1="65.034" x2="35.4167" y2="84.0842" gradientUnits="userSpaceOnUse">
<stop stop-color="#2DC3E8"/>
<stop offset="1" stop-color="#0097D6"/>
</linearGradient>
<linearGradient id="paint9_linear_2431_248402" x1="109.59" y1="74.711" x2="129.395" y2="74.711" gradientUnits="userSpaceOnUse">
<stop stop-color="#F58220"/>
<stop offset="1" stop-color="#F04E25"/>
</linearGradient>
<linearGradient id="paint10_linear_2431_248402" x1="128.189" y1="74.5515" x2="148.186" y2="74.5515" gradientUnits="userSpaceOnUse">
<stop stop-color="#F58220"/>
<stop offset="1" stop-color="#F04E25"/>
</linearGradient>
<linearGradient id="paint11_linear_2431_248402" x1="96.9586" y1="29.2755" x2="96.9586" y2="47.6364" gradientUnits="userSpaceOnUse">
<stop stop-color="#F58220"/>
<stop offset="1" stop-color="#F04E25"/>
</linearGradient>
<linearGradient id="paint12_linear_2431_248402" x1="42.1735" y1="22.4022" x2="101.461" y2="22.4022" gradientUnits="userSpaceOnUse">
<stop stop-color="#F58220"/>
<stop offset="1" stop-color="#F04E25"/>
</linearGradient>
<linearGradient id="paint13_linear_2431_248402" x1="96.9181" y1="47.5421" x2="96.9181" y2="63.7131" gradientUnits="userSpaceOnUse">
<stop stop-color="#F58220"/>
<stop offset="1" stop-color="#F04E25"/>
</linearGradient>
<clipPath id="clip0_2431_248402">
<rect width="148.271" height="85" fill="white" transform="translate(0.365234)"/>
</clipPath>
</defs>
</svg>
