<svg width="24" height="24" viewBox="0 0 24 24" fill="none" xmlns="http://www.w3.org/2000/svg">
<path fill-rule="evenodd" clip-rule="evenodd" d="M21 9.95676C21 9.84973 20.9709 9.7427 20.932 9.65514C20.932 9.64541 20.932 9.64541 20.9223 9.63568L18.2411 4.26486C18.0566 3.88541 17.7651 3.56432 17.396 3.34054C17.0366 3.11676 16.6286 3 16.2011 3H8.79886C8.37143 3 7.96343 3.11676 7.59429 3.34054C7.23486 3.56432 6.94343 3.88541 6.75886 4.26486L4.07771 9.62595C4.07771 9.63568 4.07771 9.63568 4.068 9.64541C4.02914 9.7427 4 9.84973 4 9.95676V14.627C4 15.2303 4.24286 15.8141 4.67029 16.2422C5.09771 16.6703 5.68057 16.9135 6.28286 16.9135H6.91429V20.2703C6.91429 20.6692 7.24457 21 7.64286 21H17.3571C17.7554 21 18.0857 20.6692 18.0857 20.2703V16.9135H18.7171C19.3194 16.9135 19.9023 16.6703 20.3297 16.2422C20.7571 15.8141 21 15.2303 21 14.627V9.95676ZM8.06057 4.91676C8.12857 4.78054 8.23543 4.66378 8.36171 4.57622C8.49771 4.49838 8.64343 4.45946 8.79886 4.45946H16.2011C16.3566 4.45946 16.5023 4.49838 16.6383 4.58595C16.7646 4.66378 16.8714 4.78054 16.9394 4.91676L19.096 9.22703H5.904L8.06057 4.91676ZM16.6286 19.5405H8.37143V14.1892H16.6286V19.5405ZM19.3 15.2108C19.1446 15.3665 18.9309 15.4541 18.7171 15.4541H18.0857V13.4595C18.0857 13.0605 17.7554 12.7297 17.3571 12.7297H7.64286C7.24457 12.7297 6.91429 13.0605 6.91429 13.4595V15.4541H6.28286C6.05943 15.4541 5.85543 15.3665 5.7 15.2108C5.54457 15.0551 5.45714 14.8411 5.45714 14.627V10.6865H19.5429V14.627C19.5429 14.8508 19.4554 15.0551 19.3 15.2108Z" fill="#212633"/>
</svg>
