<svg width="24" height="24" viewBox="0 0 24 24" fill="none" xmlns="http://www.w3.org/2000/svg">
<path fill-rule="evenodd" clip-rule="evenodd" d="M12.5243 2.5226C12.7022 2.4765 12.8917 2.50154 13.0503 2.59208L19.6627 6.36782C19.9845 6.55156 20.095 6.95073 19.9112 7.2655L19.434 8.08297C19.0015 8.82387 18.4155 9.48367 17.672 9.83091C17.0778 10.1084 16.4268 10.1647 15.7669 9.95976L14.7797 11.6508C16.6211 13.1516 17.1435 15.7825 15.9173 17.8828L15.2015 19.1091C15.111 19.2642 14.9598 19.3775 14.7819 19.4236C14.6041 19.4697 14.4145 19.4447 14.256 19.3541C9.08619 16.4022 10.2676 17.0768 4.33731 13.6905C4.01553 13.5068 3.90501 13.1076 4.08876 12.7929L4.80458 11.5667C6.03109 9.46562 8.60117 8.5908 10.8411 9.40678L11.8277 7.71679C11.3098 7.25441 11.0333 6.66956 10.9795 6.02588C10.9126 5.22463 11.1942 4.39689 11.6275 3.65465L12.1047 2.83717C12.1952 2.68206 12.3465 2.5687 12.5243 2.5226Z" fill="#76809B"/>
<path d="M8.04428 17.0494C7.98647 17.0153 7.91736 17.0058 7.85252 17.0232C7.78768 17.0406 7.73255 17.0834 7.69954 17.1419L6.03232 20.0966C6.01045 20.1353 5.9993 20.1793 6.00003 20.2238L6.02519 21.7539C6.02664 21.8422 6.07451 21.9232 6.15113 21.967C6.22775 22.0109 6.32178 22.011 6.39854 21.9674L7.70617 21.2246C7.74558 21.2023 7.77817 21.1696 7.80046 21.1301L9.46768 18.1754C9.53467 18.0566 9.49438 17.9061 9.37706 17.8368L8.04428 17.0494Z" fill="#76809B"/>
</svg>
