<svg width="20" height="20" viewBox="0 0 20 20" fill="none" xmlns="http://www.w3.org/2000/svg">
<path d="M5.602 14.8866L7.46294 16.7658C7.7231 17.0286 7.72311 17.4533 7.46294 17.7161C7.2022 17.9795 6.78345 17.9848 6.52495 17.7237L3.52447 14.6934C3.46374 14.6249 3.41683 14.5501 3.3833 14.4688C3.31673 14.3074 3.31673 14.1182 3.3833 13.9569C3.41683 13.8756 3.46374 13.8008 3.52447 13.7323L6.52495 10.702C6.78457 10.4397 7.20332 10.4397 7.46294 10.702C7.72311 10.9648 7.72299 11.3896 7.46282 11.6524L5.60261 13.5391H16.0007C16.3659 13.5391 16.6667 13.8415 16.6667 14.2128C16.6667 14.5842 16.3659 14.8866 16.0007 14.8866H5.602Z" fill="#4367C7"/>
<path d="M16.4756 6.27145L13.4751 9.30175C13.2166 9.56287 12.7979 9.55755 12.5371 9.29417C12.277 9.03137 12.277 8.60662 12.5371 8.34381L14.3981 6.46463H3.99937C3.63422 6.46463 3.33337 6.16221 3.33337 5.79087C3.33337 5.41954 3.63422 5.11711 3.99937 5.11711H14.3975L12.5371 3.23035C12.277 2.96755 12.277 2.5428 12.5371 2.27999C12.7968 2.01775 13.2155 2.01776 13.4751 2.28L16.4756 5.3103C16.5363 5.3788 16.5832 5.45361 16.6168 5.5349C16.6833 5.69628 16.6833 5.88547 16.6168 6.04684C16.5832 6.12813 16.5363 6.20294 16.4756 6.27145Z" fill="#4367C7"/>
</svg>
