<svg width="16" height="16" viewBox="0 0 16 16" fill="none" xmlns="http://www.w3.org/2000/svg">
<path d="M2 12.2235C2 12.6945 2.18633 13.1462 2.51801 13.4792C2.84969 13.8123 3.29953 13.9994 3.76859 13.9994L12.2314 13.9994C12.7005 13.9994 13.1503 13.8123 13.482 13.4792C13.8137 13.1462 14 12.6945 14 12.2235V9.79548C14 9.48513 13.7494 9.23354 13.4404 9.23354C13.1313 9.23354 12.8808 9.48513 12.8808 9.79548V12.2235C12.8808 12.3964 12.8123 12.5622 12.6906 12.6845C12.5688 12.8068 12.4036 12.8755 12.2314 12.8755L3.76859 12.8755C3.59638 12.8755 3.43121 12.8068 3.30943 12.6845C3.18766 12.5622 3.11924 12.3964 3.11924 12.2235L3.11924 9.79548C3.11924 9.48513 2.86869 9.23354 2.55962 9.23354C2.25055 9.23354 2 9.48513 2 9.79548L2 12.2235Z" fill="#76809B"/>
<path d="M4.80864 5.86557C4.59009 6.08502 4.59009 6.44082 4.80864 6.66027C5.02718 6.87973 5.38152 6.87973 5.60006 6.66027L7.66717 4.5846V10.5123C7.66717 10.8227 7.91772 11.0743 8.22679 11.0743C8.53586 11.0743 8.78641 10.8227 8.78641 10.5123V4.58461L10.8535 6.66027C11.072 6.87973 11.4264 6.87973 11.6449 6.66027C11.8635 6.44082 11.8635 6.08502 11.6449 5.86557L8.6225 2.83061C8.40395 2.61115 8.04961 2.61115 7.83107 2.83061L4.80864 5.86557Z" fill="#76809B"/>
</svg>
