<svg width="20" height="20" viewBox="0 0 20 20" fill="none" xmlns="http://www.w3.org/2000/svg">
<path d="M1.66602 3.99948C1.66602 3.82272 1.73661 3.6532 1.86227 3.52821C1.98793 3.40323 2.15836 3.33301 2.33606 3.33301H11.21C11.3877 3.33301 11.5581 3.40323 11.6838 3.52821C11.8094 3.6532 11.88 3.82272 11.88 3.99948C11.88 4.17624 11.8094 4.34576 11.6838 4.47075C11.5581 4.59574 11.3877 4.66595 11.21 4.66595H2.33606C2.15836 4.66595 1.98793 4.59574 1.86227 4.47075C1.73661 4.34576 1.66602 4.17624 1.66602 3.99948ZM9.86989 7.33185H2.33606C2.15836 7.33185 1.98793 7.40207 1.86227 7.52705C1.73661 7.65204 1.66602 7.82156 1.66602 7.99832C1.66602 8.17508 1.73661 8.3446 1.86227 8.46959C1.98793 8.59458 2.15836 8.6648 2.33606 8.6648H9.86989C10.0476 8.6648 10.218 8.59458 10.3437 8.46959C10.4693 8.3446 10.5399 8.17508 10.5399 7.99832C10.5399 7.82156 10.4693 7.65204 10.3437 7.52705C10.218 7.40207 10.0476 7.33185 9.86989 7.33185ZM8.52979 11.3307H2.33606C2.15836 11.3307 1.98793 11.4009 1.86227 11.5259C1.73661 11.6509 1.66602 11.8204 1.66602 11.9972C1.66602 12.1739 1.73661 12.3434 1.86227 12.4684C1.98793 12.5934 2.15836 12.6636 2.33606 12.6636H8.52979C8.7075 12.6636 8.87793 12.5934 9.00359 12.4684C9.12925 12.3434 9.19984 12.1739 9.19984 11.9972C9.19984 11.8204 9.12925 11.6509 9.00359 11.5259C8.87793 11.4009 8.7075 11.3307 8.52979 11.3307ZM7.18969 15.3295H2.33606C2.15836 15.3295 1.98793 15.3997 1.86227 15.5247C1.73661 15.6497 1.66602 15.8192 1.66602 15.996C1.66602 16.1728 1.73661 16.3423 1.86227 16.4673C1.98793 16.5923 2.15836 16.6625 2.33606 16.6625H7.18969C7.3674 16.6625 7.53783 16.5923 7.66349 16.4673C7.78915 16.3423 7.85974 16.1728 7.85974 15.996C7.85974 15.8192 7.78915 15.6497 7.66349 15.5247C7.53783 15.3997 7.3674 15.3295 7.18969 15.3295ZM18.1345 13.5234C18.0722 13.4609 17.9981 13.4113 17.9164 13.3775C17.8348 13.3437 17.7472 13.3262 17.6587 13.3262C17.5703 13.3262 17.4827 13.3437 17.4011 13.3775C17.3194 13.4113 17.2453 13.4609 17.183 13.5234L16.3187 14.3898V3.99948C16.3187 3.82272 16.2481 3.6532 16.1224 3.52821C15.9967 3.40323 15.8263 3.33301 15.6486 3.33301C15.4709 3.33301 15.3005 3.40323 15.1748 3.52821C15.0491 3.6532 14.9786 3.82272 14.9786 3.99948V14.3898L14.1142 13.5234C14.0517 13.4612 13.9775 13.412 13.8959 13.3783C13.8143 13.3447 13.7268 13.3274 13.6385 13.3274C13.5501 13.3274 13.4626 13.3447 13.381 13.3783C13.2994 13.412 13.2252 13.4612 13.1627 13.5234C13.1002 13.5855 13.0507 13.6593 13.0169 13.7405C12.9831 13.8217 12.9657 13.9087 12.9657 13.9966C12.9657 14.0845 12.9831 14.1715 13.0169 14.2527C13.0507 14.3339 13.1002 14.4076 13.1627 14.4698L15.1729 16.4692C15.2352 16.5317 15.3093 16.5812 15.3909 16.6151C15.4726 16.6489 15.5601 16.6663 15.6486 16.6663C15.7371 16.6663 15.8246 16.6489 15.9063 16.6151C15.9879 16.5812 16.062 16.5317 16.1243 16.4692L18.1345 14.4698C18.1973 14.4078 18.2471 14.3341 18.2812 14.2529C18.3152 14.1717 18.3327 14.0846 18.3327 13.9966C18.3327 13.9086 18.3152 13.8215 18.2812 13.7403C18.2471 13.6591 18.1973 13.5853 18.1345 13.5234Z" fill="white"/>
</svg>
